<svg xmlns="http://www.w3.org/2000/svg" xmlns:xlink="http://www.w3.org/1999/xlink" viewBox="0 0 150.65 145.74"><defs><style>.cls-1,.cls-11,.cls-12,.cls-13,.cls-14,.cls-15,.cls-16,.cls-17,.cls-18,.cls-9{fill:none;}.cls-1{stroke:#ffed00;stroke-width:19px;stroke-dasharray:19.79 19.79;}.cls-1,.cls-10,.cls-11,.cls-12,.cls-13,.cls-14,.cls-15,.cls-16,.cls-17,.cls-18,.cls-19,.cls-4,.cls-6,.cls-8,.cls-9{stroke-miterlimit:10;}.cls-2,.cls-8{fill:#ffed00;}.cls-3{fill:#615da6;}.cls-4{fill:#fff;}.cls-10,.cls-19,.cls-4,.cls-6,.cls-8,.cls-9{stroke:#1d1d1b;}.cls-5{fill:#5c65ac;}.cls-6{fill:#9d9d9c;}.cls-7{fill:#009fe3;}.cls-9{stroke-width:9px;}.cls-10{fill:#1d1d1b;stroke-width:0.25px;}.cls-11,.cls-12,.cls-13,.cls-14,.cls-15,.cls-16,.cls-17,.cls-18{stroke-linecap:round;stroke-width:5px;}.cls-11{stroke:url(#Fading_Sky);}.cls-12{stroke:url(#Fading_Sky-2);}.cls-13{stroke:url(#Fading_Sky-3);}.cls-14{stroke:url(#Fading_Sky-4);}.cls-15{stroke:url(#Fading_Sky-5);}.cls-16{stroke:url(#Fading_Sky-6);}.cls-17{stroke:url(#Fading_Sky-7);}.cls-18{stroke:url(#Fading_Sky-8);}.cls-19{fill:#b2b2b2;}</style><linearGradient id="Fading_Sky" x1="7.29" y1="24.35" x2="141.71" y2="24.35" gradientUnits="userSpaceOnUse"><stop offset="0" stop-color="#2581c4"/><stop offset="1" stop-color="#2581c4" stop-opacity="0"/></linearGradient><linearGradient id="Fading_Sky-2" x1="7.29" y1="37.76" x2="141.71" y2="37.76" xlink:href="#Fading_Sky"/><linearGradient id="Fading_Sky-3" x1="6.56" y1="52.18" x2="140.99" y2="52.18" xlink:href="#Fading_Sky"/><linearGradient id="Fading_Sky-4" x1="6.56" y1="65.6" x2="140.99" y2="65.6" xlink:href="#Fading_Sky"/><linearGradient id="Fading_Sky-5" x1="6.56" y1="78.75" x2="140.99" y2="78.75" xlink:href="#Fading_Sky"/><linearGradient id="Fading_Sky-6" x1="6.56" y1="92.17" x2="140.99" y2="92.17" xlink:href="#Fading_Sky"/><linearGradient id="Fading_Sky-7" x1="5.83" y1="106.59" x2="140.26" y2="106.59" xlink:href="#Fading_Sky"/><linearGradient id="Fading_Sky-8" x1="5.83" y1="120" x2="140.26" y2="120" xlink:href="#Fading_Sky"/></defs><g id="Clear_sky_day" data-name="Clear sky day"><path class="cls-1" d="M137.51,75a63,63,0,0,1-63,63C-9.08,134.69-9.06,15.3,74.5,12a63,63,0,0,1,63,63Z" transform="translate(0.5 -1.78)"/><circle class="cls-2" cx="75" cy="73.22" r="49"/></g><g id="Clear_sky_night" data-name="Clear sky night"><path class="cls-3" d="M97,108.06A49,49,0,0,1,58.49,28.8a49,49,0,1,0,56,76.06A48.89,48.89,0,0,1,97,108.06Z" transform="translate(0.5 -1.78)"/></g><g id="few_clouds_day" data-name="few clouds day"><path class="cls-1" d="M137.51,75a63,63,0,0,1-63,63C-9.08,134.69-9.06,15.3,74.5,12a63,63,0,0,1,63,63Z" transform="translate(0.5 -1.78)"/><circle class="cls-2" cx="75" cy="73.22" r="49"/><path class="cls-4" d="M7.77,93.44" transform="translate(0.5 -1.78)"/><path class="cls-4" d="M137.51,91.12" transform="translate(0.5 -1.78)"/><path class="cls-4" d="M76.14,75" transform="translate(0.5 -1.78)"/><path class="cls-4" d="M121.29,112a26,26,0,0,0-26-26H95a34.35,34.35,0,0,0-5.41-9.09c-.8-1-11.2-13.09-27.55-13.06-13.83,0-26.77,8.73-33,22.16a26,26,0,0,0,.71,52H97.44v-.1A26,26,0,0,0,121.29,112Z" transform="translate(0.5 -1.78)"/><path class="cls-4" d="M78.3,8" transform="translate(0.5 -1.78)"/></g><g id="few_clouds_night" data-name="few clouds night"><path class="cls-5" d="M68,109.11A49,49,0,0,1,94,32a49,49,0,1,0-4.32,93.13A48.74,48.74,0,0,1,68,109.11Z" transform="translate(0.5 -1.78)"/><path class="cls-4" d="M7.77,93.44" transform="translate(0.5 -1.78)"/><path class="cls-4" d="M137.51,91.12" transform="translate(0.5 -1.78)"/><path class="cls-4" d="M76.14,75" transform="translate(0.5 -1.78)"/><path class="cls-4" d="M121.29,112a26,26,0,0,0-26-26H95a34.35,34.35,0,0,0-5.41-9.09c-.8-1-11.2-13.09-27.55-13.06-13.83,0-26.77,8.73-33,22.16a26,26,0,0,0,.71,52H97.44v-.1A26,26,0,0,0,121.29,112Z" transform="translate(0.5 -1.78)"/><path class="cls-4" d="M78.3,8" transform="translate(0.5 -1.78)"/></g><g id="scattered_clouds_" data-name="scattered clouds
"><path class="cls-4" d="M146.72,84.52a31.89,31.89,0,0,0-31.89-31.89h-.38a42.27,42.27,0,0,0-6.63-11.13c-1-1.17-13.71-16-33.74-16-16.95,0-32.79,10.69-40.38,27.14a31.88,31.88,0,0,0,.86,63.75H117.5v-.12A31.89,31.89,0,0,0,146.72,84.52Z" transform="translate(0.5 -1.78)"/></g><g id="shower_rain_" data-name="shower rain
"><path class="cls-6" d="M149.3,55a27,27,0,0,0-27-27H122a35.77,35.77,0,0,0-5.6-9.41c-.83-1-11.6-13.56-28.54-13.53-14.32,0-27.73,9-34.14,23a27,27,0,0,0,.73,53.91h70.13v-.1A27,27,0,0,0,149.3,55Z" transform="translate(0.5 -1.78)"/><path class="cls-4" d="M124.78,66.48a27,27,0,0,0-27-27h-.33a35.77,35.77,0,0,0-5.6-9.41c-.82-1-11.6-13.55-28.54-13.53-14.32,0-27.72,9-34.14,23a27,27,0,0,0,.73,53.9h70.13v-.1A27,27,0,0,0,124.78,66.48Z" transform="translate(0.5 -1.78)"/><path class="cls-7" d="M28.63,99.82h0a9.37,9.37,0,0,1-2.19,3.41c-.19.18-.42.37-.37.58.13.68,3.1,1.18,4.56.29,1.88-1.17,2.1-5.23.28-10" transform="translate(0.5 -1.78)"/><path class="cls-7" d="M36.5,110.28h0a9.39,9.39,0,0,1-2.2,3.42c-.18.17-.41.37-.37.57.14.69,3.11,1.19,4.56.29,1.89-1.17,2.11-5.22.29-10" transform="translate(0.5 -1.78)"/><path class="cls-7" d="M44.94,99.14h0a9.37,9.37,0,0,1-2.19,3.41c-.19.18-.41.37-.37.58.13.69,3.1,1.18,4.56.29,1.88-1.17,2.1-5.23.28-10" transform="translate(0.5 -1.78)"/><path class="cls-7" d="M51.05,110.28h0a9.39,9.39,0,0,1-2.2,3.42c-.18.17-.41.37-.37.57.13.69,3.11,1.19,4.56.29,1.89-1.17,2.11-5.22.29-10" transform="translate(0.5 -1.78)"/><path class="cls-7" d="M60.35,99.82h0a9.37,9.37,0,0,1-2.2,3.41c-.18.18-.41.37-.37.58.13.68,3.11,1.18,4.56.29,1.89-1.17,2.11-5.23.29-10" transform="translate(0.5 -1.78)"/><path class="cls-7" d="M66.45,110.28h0a9.53,9.53,0,0,1-2.19,3.42c-.19.17-.42.37-.38.57.14.69,3.11,1.19,4.57.29,1.88-1.17,2.1-5.22.28-10" transform="translate(0.5 -1.78)"/><path class="cls-7" d="M77.07,99.82h0a9.37,9.37,0,0,1-2.19,3.41c-.19.18-.42.37-.38.58.14.68,3.11,1.18,4.57.29,1.88-1.17,2.1-5.23.28-10" transform="translate(0.5 -1.78)"/><path class="cls-7" d="M83.05,110.28h0a9.39,9.39,0,0,1-2.2,3.42c-.18.17-.41.37-.37.57.14.69,3.11,1.19,4.57.29,1.88-1.17,2.1-5.22.28-10" transform="translate(0.5 -1.78)"/><path class="cls-7" d="M92.21,99.82h0a9.37,9.37,0,0,1-2.2,3.41c-.18.18-.41.37-.37.58.13.68,3.11,1.18,4.56.29,1.89-1.17,2.11-5.23.29-10" transform="translate(0.5 -1.78)"/><path class="cls-7" d="M25.51,119h0a9.52,9.52,0,0,1-2.2,3.42c-.18.17-.41.37-.37.57.13.69,3.11,1.19,4.56.29,1.89-1.17,2.11-5.22.29-10" transform="translate(0.5 -1.78)"/><path class="cls-7" d="M33.37,129.45h0a9.3,9.3,0,0,1-2.19,3.42c-.19.18-.41.37-.37.58.13.68,3.11,1.18,4.56.28,1.88-1.16,2.1-5.22.28-10" transform="translate(0.5 -1.78)"/><path class="cls-7" d="M41.82,118.31h0a9.3,9.3,0,0,1-2.2,3.42c-.18.17-.41.37-.37.57.14.69,3.11,1.19,4.56.29,1.89-1.16,2.11-5.22.29-10" transform="translate(0.5 -1.78)"/><path class="cls-7" d="M47.92,129.45h0a9.44,9.44,0,0,1-2.19,3.42c-.19.18-.41.37-.37.58.13.68,3.1,1.18,4.56.28,1.88-1.16,2.1-5.22.28-10" transform="translate(0.5 -1.78)"/><path class="cls-7" d="M57.22,119h0A9.53,9.53,0,0,1,55,122.41c-.19.17-.41.37-.37.57.13.69,3.1,1.19,4.56.29,1.88-1.17,2.1-5.22.28-10" transform="translate(0.5 -1.78)"/><path class="cls-7" d="M63.33,129.45h0a9.43,9.43,0,0,1-2.2,3.42c-.18.18-.41.37-.37.58.13.68,3.11,1.18,4.56.28,1.89-1.16,2.11-5.22.29-10" transform="translate(0.5 -1.78)"/><path class="cls-7" d="M74,119h0a9.52,9.52,0,0,1-2.2,3.42c-.18.17-.41.37-.37.57.13.69,3.11,1.19,4.56.29,1.89-1.17,2.11-5.22.29-10" transform="translate(0.5 -1.78)"/><path class="cls-7" d="M79.93,129.45h0a9.43,9.43,0,0,1-2.2,3.42c-.19.18-.41.37-.37.58.13.68,3.11,1.18,4.56.28,1.89-1.16,2.11-5.22.29-10" transform="translate(0.5 -1.78)"/><path class="cls-7" d="M89.08,119h0a9.53,9.53,0,0,1-2.19,3.42c-.19.17-.41.37-.37.57.13.69,3.1,1.19,4.56.29,1.88-1.17,2.1-5.22.28-10" transform="translate(0.5 -1.78)"/></g><g id="rain"><path class="cls-6" d="M149.3,55a27,27,0,0,0-27-27H122a35.77,35.77,0,0,0-5.6-9.41c-.83-1-11.6-13.56-28.54-13.53-14.32,0-27.73,9-34.14,23a27,27,0,0,0,.73,53.91h70.13v-.1A27,27,0,0,0,149.3,55Z" transform="translate(0.5 -1.78)"/><path class="cls-4" d="M124.78,66.48a27,27,0,0,0-27-27h-.33a35.77,35.77,0,0,0-5.6-9.41c-.82-1-11.6-13.55-28.54-13.53-14.32,0-27.72,9-34.14,23a27,27,0,0,0,.73,53.9h70.13v-.1A27,27,0,0,0,124.78,66.48Z" transform="translate(0.5 -1.78)"/><path class="cls-7" d="M28.63,99.82h0a9.37,9.37,0,0,1-2.19,3.41c-.19.18-.42.37-.37.58.13.68,3.1,1.18,4.56.29,1.88-1.17,2.1-5.23.28-10" transform="translate(0.5 -1.78)"/><path class="cls-7" d="M44.94,99.14h0a9.37,9.37,0,0,1-2.19,3.41c-.19.18-.41.37-.37.58.13.69,3.1,1.18,4.56.29,1.88-1.17,2.1-5.23.28-10" transform="translate(0.5 -1.78)"/><path class="cls-7" d="M60.35,99.82h0a9.37,9.37,0,0,1-2.2,3.41c-.18.18-.41.37-.37.58.13.68,3.11,1.18,4.56.29,1.89-1.17,2.11-5.23.29-10" transform="translate(0.5 -1.78)"/><path class="cls-7" d="M77.07,99.82h0a9.37,9.37,0,0,1-2.19,3.41c-.19.18-.42.37-.38.58.14.68,3.11,1.18,4.57.29,1.88-1.17,2.1-5.23.28-10" transform="translate(0.5 -1.78)"/><path class="cls-7" d="M92.21,99.82h0a9.37,9.37,0,0,1-2.2,3.41c-.18.18-.41.37-.37.58.13.68,3.11,1.18,4.56.29,1.89-1.17,2.11-5.23.29-10" transform="translate(0.5 -1.78)"/><path class="cls-7" d="M34.73,119h0a9.4,9.4,0,0,1-2.19,3.42c-.19.17-.41.37-.37.57.13.69,3.11,1.19,4.56.29,1.88-1.17,2.11-5.22.29-10" transform="translate(0.5 -1.78)"/><path class="cls-7" d="M51.05,118.31h0a9.3,9.3,0,0,1-2.2,3.42c-.18.17-.41.37-.37.57.13.69,3.11,1.19,4.56.29,1.89-1.16,2.11-5.22.29-10" transform="translate(0.5 -1.78)"/><path class="cls-7" d="M66.45,119h0a9.53,9.53,0,0,1-2.19,3.42c-.19.17-.42.37-.38.57.14.69,3.11,1.19,4.57.29,1.88-1.17,2.1-5.22.28-10" transform="translate(0.5 -1.78)"/><path class="cls-7" d="M83.17,119h0A9.4,9.4,0,0,1,81,122.41c-.19.17-.41.37-.37.57.13.69,3.11,1.19,4.56.29,1.88-1.17,2.11-5.22.29-10" transform="translate(0.5 -1.78)"/><path class="cls-7" d="M98.31,119h0a9.53,9.53,0,0,1-2.19,3.42c-.19.17-.42.37-.38.57.14.69,3.11,1.19,4.57.29,1.88-1.17,2.1-5.22.28-10" transform="translate(0.5 -1.78)"/></g><g id="thunderstorm"><polygon class="cls-2" points="84.21 59.99 99.89 59.99 89.34 77.66 96.19 106.46 89.63 119.86 92.05 106.46 82.22 78.81 84.21 59.99"/><polygon class="cls-2" points="52.85 108.6 51 115.15 52.85 122 49.29 117.15 49.29 110.88 52.85 102.89 52.85 108.6"/><polygon class="cls-2" points="36.6 85.08 27.77 95.05 32.19 100.19 27.77 112.44 36.6 100.47 32.19 94.48 40.31 88.5 36.6 85.08"/><polygon class="cls-2" points="58.27 86.5 59.98 97.05 63.4 98.76 63.4 95.05 60.84 86.5 58.27 86.5"/><polygon class="cls-2" points="122.98 94.77 122.98 103.61 126.69 108.74 124.84 115.86 130.68 107.6 126.83 103.32 126.83 94.77 122.98 94.77"/><polygon class="cls-2" points="111.87 86.5 108.73 96.19 108.73 101.61 105.59 94.06 107.59 85.08 111.87 86.5"/><path class="cls-4" d="M146.72,61.28A31.88,31.88,0,0,0,114.83,29.4h-.38a42.46,42.46,0,0,0-6.63-11.14c-1-1.17-13.71-16-33.74-16C57.13,2.3,41.29,13,33.7,29.42a31.88,31.88,0,0,0,.86,63.74H117.5V93A31.87,31.87,0,0,0,146.72,61.28Z" transform="translate(0.5 -1.78)"/><polygon class="cls-8" points="75.88 29.86 104.54 29.86 90.21 55.68 112.06 55.68 67.89 115.86 79.95 72.16 60.84 72.16 75.88 29.86"/></g><g id="snow"><polygon class="cls-4" points="30.07 88.69 26.64 88.69 24.92 91.66 26.64 94.64 30.07 94.64 31.79 91.66 30.07 88.69"/><polygon class="cls-4" points="71.39 115.49 67.96 115.49 66.24 118.46 67.96 121.44 71.39 121.44 73.11 118.46 71.39 115.49"/><polygon class="cls-4" points="41.45 112.52 38.02 112.52 36.3 115.49 38.02 118.46 41.45 118.46 43.17 115.49 41.45 112.52"/><polygon class="cls-4" points="55.27 97.16 51.84 97.16 50.13 100.13 51.84 103.11 55.27 103.11 56.99 100.13 55.27 97.16"/><polygon class="cls-4" points="71.39 92.89 67.96 92.89 66.24 95.86 67.96 98.84 71.39 98.84 73.11 95.86 71.39 92.89"/><polygon class="cls-4" points="90.97 104.92 87.54 104.92 85.82 107.89 87.54 110.86 90.97 110.86 92.69 107.89 90.97 104.92"/><polygon class="cls-4" points="107.4 91.66 103.97 91.66 102.25 94.64 103.97 97.61 107.4 97.61 109.12 94.64 107.4 91.66"/><polygon class="cls-4" points="87.54 126.85 84.11 126.85 82.39 129.83 84.11 132.8 87.54 132.8 89.25 129.83 87.54 126.85"/><polygon class="cls-4" points="55.27 127.98 51.84 127.98 50.13 130.95 51.84 133.93 55.27 133.93 56.99 130.95 55.27 127.98"/><polygon class="cls-4" points="26.64 103.16 23.2 103.16 21.49 106.14 23.2 109.11 26.64 109.11 28.35 106.14 26.64 103.16"/><polygon class="cls-4" points="28.55 130.95 25.12 130.95 23.4 133.93 25.12 136.9 28.55 136.9 30.27 133.93 28.55 130.95"/><polygon class="cls-4" points="69.88 133.93 66.45 133.93 64.73 136.9 66.45 139.87 69.88 139.87 71.6 136.9 69.88 133.93"/><path class="cls-6" d="M149.65,55a27,27,0,0,0-27-27h-.32a35.85,35.85,0,0,0-5.61-9.41c-.82-1-11.59-13.56-28.53-13.53-14.33,0-27.73,9-34.15,23a27,27,0,0,0,.73,53.91H125v-.1A27,27,0,0,0,149.65,55Z" transform="translate(0.5 -1.78)"/><path class="cls-4" d="M125.13,66.48a27,27,0,0,0-27-27h-.32a35.85,35.85,0,0,0-5.61-9.41c-.82-1-11.59-13.55-28.53-13.53-14.33,0-27.73,9-34.15,23a27,27,0,0,0,.74,53.9h70.13v-.1A27,27,0,0,0,125.13,66.48Z" transform="translate(0.5 -1.78)"/></g><g id="mist"><path class="cls-9" d="M18.79,74.17c.9-1.64,18.33-32.26,53.05-33.36,23.33-.73,45.3,12.16,56.91,33.36" transform="translate(0.5 -1.78)"/><path class="cls-9" d="M18.79,71.31c.9,1.63,18.33,32.26,53.05,33.35,23.33.74,45.3-12.16,56.91-33.35" transform="translate(0.5 -1.78)"/><circle class="cls-9" cx="74.27" cy="70.94" r="17.18"/><path class="cls-10" d="M14.82,72.93v-.4a.88.88,0,0,1,.43-.76l1-.62a.88.88,0,0,1,1.31.61L17.83,73a.88.88,0,0,1-1,1l-1.27-.26A.89.89,0,0,1,14.82,72.93Z" transform="translate(0.5 -1.78)"/><path class="cls-10" d="M132.77,72.94v-.41a.86.86,0,0,0-.45-.75l-1.07-.62a.91.91,0,0,0-1.35.6l-.23,1.29a.89.89,0,0,0,1.07,1l1.3-.27A.88.88,0,0,0,132.77,72.94Z" transform="translate(0.5 -1.78)"/><path class="cls-11" d="M9.79,19.67c1.55,2,5.79,7,12.54,8.36a11.6,11.6,0,0,0,6.46,0c3-1,3.41-3,7.41-4.94,2.07-1,3.7-1.79,5.71-1.52,3,.41,3.25,2.69,7.22,4.75,1.66.86,4.65,2.42,7.79,1.71,3.49-.79,3.45-3.55,7.79-5.13a11.09,11.09,0,0,1,6.46-.57c3.44.86,3.72,3.16,8,5.13,2,.9,3.83,1.78,6.08,1.52,4.93-.55,5.53-5.85,10.26-6.46,1-.12,3.13.68,7.41,2.28,7.87,2.95,7.9,3.42,9.51,3.42,5.16,0,6.43-4.82,11.4-6.08,3-.77,7.89-.3,15.39,6.27" transform="translate(0.5 -1.78)"/><path class="cls-12" d="M9.79,33.09c1.55,2,5.79,7,12.54,8.36a11.69,11.69,0,0,0,6.46,0c3-1,3.41-3,7.41-4.94,2.07-1,3.7-1.8,5.71-1.52,3,.4,3.25,2.69,7.22,4.75,1.66.86,4.65,2.42,7.79,1.71,3.49-.79,3.45-3.56,7.79-5.13a10.93,10.93,0,0,1,6.46-.57c3.44.85,3.72,3.15,8,5.13,2,.9,3.83,1.77,6.08,1.52,4.93-.56,5.53-5.86,10.26-6.46,1-.13,3.13.67,7.41,2.28,7.87,2.94,7.9,3.41,9.51,3.42,5.16,0,6.43-4.83,11.4-6.08,3-.77,7.89-.31,15.39,6.27" transform="translate(0.5 -1.78)"/><path class="cls-13" d="M9.06,47.51c1.55,2,5.79,7,12.54,8.36a11.69,11.69,0,0,0,6.46,0c3-1,3.41-3,7.42-4.94,2.07-1,3.69-1.8,5.7-1.52,3,.4,3.26,2.69,7.22,4.75,1.66.86,4.66,2.42,7.79,1.71,3.49-.79,3.45-3.56,7.79-5.13a11,11,0,0,1,6.47-.57c3.43.85,3.71,3.15,8,5.13,1.95.9,3.83,1.77,6.08,1.52C89.45,56.26,90,51,94.77,50.36c1-.13,3.13.67,7.42,2.28,7.86,2.94,7.89,3.41,9.5,3.42,5.16,0,6.44-4.83,11.4-6.08,3-.77,7.9-.31,15.4,6.27" transform="translate(0.5 -1.78)"/><path class="cls-14" d="M9.06,60.92c1.55,2,5.79,7,12.54,8.36a11.6,11.6,0,0,0,6.46,0c3-1,3.41-3,7.42-4.94,2.07-1,3.69-1.79,5.7-1.52,3,.41,3.26,2.69,7.22,4.75,1.66.87,4.66,2.42,7.79,1.71,3.49-.79,3.45-3.55,7.79-5.13a11.13,11.13,0,0,1,6.47-.57c3.43.86,3.71,3.16,8,5.13,1.95.91,3.83,1.78,6.08,1.52,4.94-.55,5.53-5.85,10.26-6.46,1-.12,3.13.68,7.42,2.28,7.86,3,7.89,3.42,9.5,3.42,5.16,0,6.44-4.82,11.4-6.08,3-.77,7.9-.3,15.4,6.27" transform="translate(0.5 -1.78)"/><path class="cls-15" d="M9.06,74.07c1.55,2,5.79,7,12.54,8.37a11.69,11.69,0,0,0,6.46,0c3-1,3.41-3,7.42-5,2.07-1,3.69-1.79,5.7-1.52,3,.41,3.26,2.69,7.22,4.76,1.66.86,4.66,2.42,7.79,1.71,3.49-.8,3.45-3.56,7.79-5.14a11.13,11.13,0,0,1,6.47-.57c3.43.86,3.71,3.16,8,5.14,1.95.9,3.83,1.77,6.08,1.52,4.94-.56,5.53-5.86,10.26-6.47,1-.12,3.13.68,7.42,2.29,7.86,2.94,7.89,3.41,9.5,3.42,5.16,0,6.44-4.83,11.4-6.09,3-.76,7.9-.3,15.4,6.28" transform="translate(0.5 -1.78)"/><path class="cls-16" d="M9.06,87.49c1.55,2,5.79,7,12.54,8.36a11.6,11.6,0,0,0,6.46,0c3-1,3.41-3,7.42-4.94,2.07-1,3.69-1.79,5.7-1.52,3,.4,3.26,2.69,7.22,4.75,1.66.86,4.66,2.42,7.79,1.71,3.49-.79,3.45-3.55,7.79-5.13a11.13,11.13,0,0,1,6.47-.57c3.43.86,3.71,3.15,8,5.13,1.95.9,3.83,1.78,6.08,1.52C89.45,96.24,90,91,94.77,90.34c1-.12,3.13.68,7.42,2.28,7.86,2.95,7.89,3.42,9.5,3.42,5.16,0,6.44-4.82,11.4-6.08,3-.77,7.9-.3,15.4,6.27" transform="translate(0.5 -1.78)"/><path class="cls-17" d="M8.33,101.91c1.56,2,5.8,7,12.55,8.36a11.6,11.6,0,0,0,6.46,0c3-1,3.4-3,7.41-4.94,2.07-1,3.7-1.79,5.7-1.52,3,.4,3.26,2.69,7.22,4.75,1.66.86,4.66,2.42,7.8,1.71,3.48-.79,3.44-3.55,7.79-5.13a11.09,11.09,0,0,1,6.46-.57c3.43.86,3.71,3.15,8,5.13,2,.9,3.84,1.78,6.08,1.52,4.94-.56,5.53-5.85,10.27-6.46,1-.12,3.13.68,7.41,2.28,7.87,2.95,7.9,3.42,9.5,3.42,5.17,0,6.44-4.82,11.41-6.08,3-.77,7.89-.3,15.39,6.27" transform="translate(0.5 -1.78)"/><path class="cls-18" d="M8.33,115.32c1.56,2,5.8,7,12.55,8.37a11.69,11.69,0,0,0,6.46,0c3-1,3.4-3,7.41-4.94,2.07-1,3.7-1.8,5.7-1.53,3,.41,3.26,2.69,7.22,4.76,1.66.86,4.66,2.42,7.8,1.71,3.48-.79,3.44-3.56,7.79-5.13a10.93,10.93,0,0,1,6.46-.57c3.43.85,3.71,3.15,8,5.13,2,.9,3.84,1.77,6.08,1.52,4.94-.56,5.53-5.86,10.27-6.46,1-.13,3.13.67,7.41,2.28,7.87,2.94,7.9,3.41,9.5,3.42,5.17,0,6.44-4.83,11.41-6.08,3-.77,7.89-.31,15.39,6.27" transform="translate(0.5 -1.78)"/></g><g id="broken_clouds_" data-name="broken clouds
"><path class="cls-6" d="M149,93.55a32.16,32.16,0,0,0-32.16-32.16h-.39a43,43,0,0,0-6.69-11.23C108.78,49,95.93,34,75.72,34,58.63,34.05,42.64,44.81,35,61.41a32.16,32.16,0,0,0,.87,64.3h83.67v-.12A32.16,32.16,0,0,0,149,93.55Z" transform="translate(0.5 -1.78)"/><path class="cls-19" d="M122.48,68.47A26.74,26.74,0,0,0,95.74,41.73h-.33a35.53,35.53,0,0,0-5.56-9.34C89,31.41,78.35,19,61.55,19c-14.22,0-27.51,9-33.88,22.77a26.74,26.74,0,0,0,.73,53.48H98v-.1A26.74,26.74,0,0,0,122.48,68.47Z" transform="translate(0.5 -1.78)"/><path class="cls-6" d="M149,60a24.17,24.17,0,0,0-24.17-24.17h-.29a32,32,0,0,0-5-8.44c-.73-.88-10.39-12.15-25.57-12.12-12.85,0-24.86,8.1-30.61,20.57A24.16,24.16,0,0,0,64,84.14h62.87v-.09A24.16,24.16,0,0,0,149,60Z" transform="translate(0.5 -1.78)"/><path class="cls-4" d="M145.3,88.68a32.16,32.16,0,0,0-32.16-32.16h-.39a42.65,42.65,0,0,0-6.69-11.23c-1-1.18-13.83-16.17-34-16.14-17.09,0-33.08,10.78-40.73,27.38a32.16,32.16,0,0,0,.87,64.3h83.67v-.12A32.16,32.16,0,0,0,145.3,88.68Z" transform="translate(0.5 -1.78)"/></g></svg>